<svg width="20" height="16" viewBox="0 0 20 16" fill="none" xmlns="http://www.w3.org/2000/svg">
<rect x="0.5" y="0.5" width="19" height="14.5" rx="3.5" fill="#F5F5F5"/>
<rect x="0.5" y="0.5" width="19" height="14.5" rx="3.5" stroke="black"/>
<path d="M5.54 11.25C4.61 11.25 4.01 10.66 4.01 9.74C4.01 8.77 4.59 8.2 5.73 8.2H6.32V7.1H5.73C4.59 7.1 4.01 6.53 4.01 5.56C4.01 4.64 4.61 4.05 5.54 4.05C6.66 4.05 7.02 4.75 7.02 5.59V6.42H8.12V5.59C8.12 4.75 8.48 4.05 9.6 4.05C10.53 4.05 11.13 4.64 11.13 5.56C11.13 6.53 10.55 7.1 9.41 7.1H8.82V8.2H9.41C10.55 8.2 11.13 8.77 11.13 9.74C11.13 10.66 10.53 11.25 9.6 11.25C8.48 11.25 8.12 10.55 8.12 9.71V8.88H7.02V9.71C7.02 10.55 6.66 11.25 5.54 11.25ZM8.82 5.57V6.42H9.41C10.12 6.42 10.42 6.13 10.42 5.56C10.42 4.97 10.07 4.74 9.6 4.74C9.08 4.74 8.82 5.06 8.82 5.57ZM5.73 6.42H6.32V5.57C6.32 5.06 6.06 4.74 5.54 4.74C5.07 4.74 4.72 4.97 4.72 5.56C4.72 6.13 5.02 6.42 5.73 6.42ZM7.02 8.2H8.12V7.1H7.02V8.2ZM5.54 10.56C6.06 10.56 6.32 10.24 6.32 9.73V8.88H5.73C5.02 8.88 4.72 9.17 4.72 9.74C4.72 10.33 5.07 10.56 5.54 10.56ZM8.82 9.73C8.82 10.24 9.08 10.56 9.6 10.56C10.07 10.56 10.42 10.33 10.42 9.74C10.42 9.17 10.12 8.88 9.41 8.88H8.82V9.73Z" fill="black"/>
<path d="M12.436 10.85L14.788 3.65H15.612L13.26 10.85H12.436Z" fill="black"/>
</svg>
